<svg width="742" height="168" viewBox="0 0 742 168" fill="none" xmlns="http://www.w3.org/2000/svg">
<path d="M699.274 133.253C682.295 133.253 666.356 127.628 658.561 122.882L659.6 88.0735H666.01C669.821 110.049 680.564 125.518 701.006 125.518C715.56 125.518 725.954 115.674 725.954 100.908C725.954 88.6017 717.291 82.6243 701.527 76.2954L693.73 73.1314C673.634 65.0447 660.119 56.9581 660.119 38.6753C660.119 18.8105 676.925 4.92249 699.621 4.92249C715.386 4.92249 726.993 8.61425 733.924 11.9544L733.231 42.1914H726.821C723.009 22.3263 713.306 12.6576 697.888 12.6576C684.894 12.6576 675.365 21.9748 675.365 33.2257C675.365 44.8282 682.815 50.102 700.14 57.1339L707.937 60.2983C730.459 69.4397 741.547 77.8779 741.547 95.6334C741.547 117.081 724.395 133.253 699.274 133.253Z" fill="#040610"/>
<path d="M588.867 133.253C555.95 133.253 529.616 107.763 529.616 69.4397C529.616 30.9404 555.95 4.92249 588.867 4.92249C621.784 4.92249 648.118 30.413 648.118 68.7365C648.118 107.236 621.784 133.253 588.867 133.253ZM549.02 65.5722C549.02 98.2701 564.265 125.343 590.079 125.343C612.948 125.343 628.714 103.896 628.714 72.604C628.714 39.7301 613.815 12.8334 587.653 12.8334C564.958 12.8334 549.02 34.2805 549.02 65.5722Z" fill="#040610"/>
<path d="M447.43 167.885C441.366 167.885 436.516 165.776 433.224 162.963C434.437 156.81 438.421 150.481 445.178 150.481C450.375 150.481 452.454 152.415 456.613 152.415C461.984 152.415 464.235 147.844 471.859 129.386L472.552 127.804L447.95 69.6151C441.887 55.3755 439.808 50.9807 433.224 49.9259V44.1246H471.859V49.9259L468.567 50.4533C459.557 51.8596 458.345 55.3755 462.85 66.2749L480.347 108.817L497.5 67.3297C502.35 55.7271 500.098 51.5081 492.995 50.4533L489.704 49.9259V44.1246H522.448V49.9259C515.518 51.3322 512.052 55.3755 506.161 69.2634L479.482 132.023C467.528 160.15 459.905 167.885 447.43 167.885Z" fill="#040610"/>
<path d="M378.211 132.202V126.401L381.329 126.05C387.393 125.346 389.644 123.413 389.644 116.204V53.2663H375.612V47.8165L389.644 43.5974V35.6866C389.644 10.1962 407.49 0 422.216 0C435.556 0 443.179 5.80128 445.605 10.372C443.525 14.5911 440.061 17.5796 435.383 17.5796C431.225 17.5796 429.319 15.6458 426.894 13.0089C424.121 10.0204 421.349 7.20772 417.365 7.20772C408.876 7.20772 405.931 15.6458 405.931 35.3351V44.1249H428.28L426.027 53.2663H405.931V116.204C405.931 123.413 408.01 124.994 418.577 126.05L422.042 126.401V132.202H378.211Z" fill="#040610"/>
<path d="M330.891 132.203V126.401L334.01 126.05C340.074 125.347 342.326 123.413 342.326 116.206V65.5725C342.326 58.7164 340.247 57.4859 330.891 54.6731V50.1025L357.052 42.1916H358.611V116.206C358.611 123.413 360.864 125.347 366.928 126.05L370.046 126.401V132.203H330.891Z" fill="#040610"/>
<path d="M302.558 132.55C289.737 132.55 281.942 126.047 281.942 111.806V53.2662H268.427V47.8165C280.209 43.7732 287.139 33.7529 291.297 21.9745H298.226V44.1248H322.308L320.056 53.2662H298.226V108.641C298.226 117.08 302.384 121.299 310.7 121.299C315.032 121.299 319.19 120.421 323.52 118.487V123.76C317.977 129.386 310.008 132.55 302.558 132.55Z" fill="#040610"/>
<path d="M200.361 132.202V126.4L203.48 126.049C209.544 125.346 211.795 123.412 211.795 116.204V65.5715C211.795 58.7154 209.716 57.4849 200.361 54.6721V50.1014L226.001 42.1906H227.561V63.1103C230.853 53.7932 238.303 42.3664 249.737 42.3664C256.32 42.3664 262.037 45.8823 264.29 48.695C262.903 54.4963 259.093 60.1218 253.549 60.1218C251.296 60.1218 249.737 59.5945 247.139 58.5397C244.366 57.4849 242.806 56.9575 240.555 56.9575C234.838 56.9575 230.506 63.1103 228.08 70.1421V116.204C228.08 123.412 230.333 124.993 240.901 126.049L244.193 126.4V132.202H200.361Z" fill="#040610"/>
<path d="M155.287 132.726C133.285 132.726 117.345 115.673 117.345 89.1288C117.345 60.1218 136.403 42.0148 155.634 42.0148C178.156 42.0148 189.764 58.7156 189.764 76.4712C189.764 78.2293 189.764 79.9865 189.591 81.5689H132.591C132.766 108.466 147.144 119.014 162.044 119.014C172.612 119.014 179.889 114.266 186.819 105.125L190.803 107.763C182.834 124.99 170.013 132.726 155.287 132.726ZM132.938 73.834H172.959C171.919 59.2429 165.508 49.2226 154.075 49.2226C144.026 49.2226 135.017 57.8365 132.938 73.834Z" fill="#040610"/>
<path d="M59.0783 133.253C26.5066 133.253 0 107.94 0 69.7913C0 31.1162 26.3334 4.92249 59.9442 4.92249C72.9382 4.92249 87.664 7.38363 100.658 13.5365V43.4219H94.2476C87.664 19.3378 74.6699 12.8334 59.4247 12.8334C34.8229 12.8334 19.4035 34.2805 19.4035 65.748C19.4035 97.2148 35.3425 121.475 63.756 121.475C77.9623 121.475 90.6089 115.147 101.697 95.9848L107.588 99.5011C100.139 116.904 86.6239 133.253 59.0783 133.253Z" fill="#040610"/>
<path d="M348.871 0.0010376L355.252 6.60763L361.763 13.0827L355.252 19.5579L348.871 26.1644L342.49 19.5579L335.978 13.0827L342.49 6.60763L348.871 0.0010376Z" fill="#040610"/>
</svg>
