<svg width="55" height="11" viewBox="0 0 55 11" fill="none" xmlns="http://www.w3.org/2000/svg">
<path d="M9.648 5.216V8.544C9.648 8.84267 9.58933 9.072 9.472 9.232C9.36533 9.38133 9.184 9.52533 8.928 9.664C8.64 9.824 8.224 9.96267 7.68 10.08C7.136 10.208 6.592 10.272 6.048 10.272C5.024 10.272 4.10133 10.096 3.28 9.744C2.46933 9.38133 1.824 8.82667 1.344 8.08C0.874667 7.32267 0.64 6.352 0.64 5.168C0.64 4.03733 0.88 3.09333 1.36 2.336C1.84 1.568 2.48533 0.992 3.296 0.608C4.11733 0.213333 5.024 0.0159998 6.016 0.0159998C6.67733 0.0159998 7.248 0.0853332 7.728 0.224C8.21867 0.362666 8.592 0.554666 8.848 0.799999C9.11467 1.04533 9.248 1.328 9.248 1.648C9.248 1.88267 9.184 2.096 9.056 2.288C8.93867 2.46933 8.79467 2.608 8.624 2.704C8.35733 2.53333 8.02133 2.37333 7.616 2.224C7.21067 2.07467 6.736 2 6.192 2C5.60533 2 5.07733 2.128 4.608 2.384C4.14933 2.62933 3.792 2.992 3.536 3.472C3.28 3.94133 3.152 4.50133 3.152 5.152C3.152 5.856 3.27467 6.44267 3.52 6.912C3.776 7.38133 4.12267 7.73333 4.56 7.968C5.008 8.192 5.51467 8.304 6.08 8.304C6.34667 8.304 6.58667 8.27733 6.8 8.224C7.024 8.17067 7.19467 8.11733 7.312 8.064V6.192H5.44C5.376 6.08533 5.31733 5.952 5.264 5.792C5.21067 5.62133 5.184 5.44 5.184 5.248C5.184 4.91733 5.25867 4.67733 5.408 4.528C5.568 4.368 5.776 4.288 6.032 4.288H8.72C9.008 4.288 9.232 4.368 9.392 4.528C9.56267 4.688 9.648 4.91733 9.648 5.216ZM11.6673 3.232H14.0993V9.984C14.0033 10.016 13.8486 10.0427 13.6353 10.064C13.4219 10.096 13.2033 10.112 12.9793 10.112C12.4993 10.112 12.1579 10.0267 11.9553 9.856C11.7633 9.68533 11.6673 9.38667 11.6673 8.96V3.232ZM14.0993 6.304H11.6673V0.271999C11.7739 0.250666 11.9339 0.224 12.1473 0.191999C12.3713 0.159999 12.5899 0.143999 12.8033 0.143999C13.2619 0.143999 13.5926 0.223999 13.7953 0.384C13.9979 0.544 14.0993 0.848 14.0993 1.296V6.304ZM18.498 2.256L18.482 0.304H23.426C23.49 0.4 23.5487 0.533333 23.602 0.704C23.6553 0.874667 23.682 1.056 23.682 1.248C23.682 1.58933 23.602 1.84533 23.442 2.016C23.2927 2.176 23.0847 2.256 22.818 2.256H18.498ZM20.754 0.304L20.77 2.256H15.826C15.7513 2.16 15.6873 2.02667 15.634 1.856C15.5913 1.68533 15.57 1.504 15.57 1.312C15.57 0.959999 15.6447 0.704 15.794 0.544C15.954 0.384 16.162 0.304 16.418 0.304H20.754ZM18.37 1.824H20.818V9.984C20.7113 10.016 20.5513 10.0427 20.338 10.064C20.1247 10.096 19.906 10.112 19.682 10.112C19.202 10.112 18.8607 10.0267 18.658 9.856C18.466 9.68533 18.37 9.38667 18.37 8.96V1.824ZM25.1516 3.232H27.5836V9.984C27.4876 10.016 27.333 10.0427 27.1196 10.064C26.9063 10.096 26.6876 10.112 26.4636 10.112C25.9836 10.112 25.6423 10.0267 25.4396 9.856C25.2476 9.68533 25.1516 9.38667 25.1516 8.96V3.232ZM27.5836 6.304H25.1516V0.271999C25.2583 0.250666 25.4183 0.224 25.6316 0.191999C25.8556 0.159999 26.069 0.143999 26.2716 0.143999C26.741 0.143999 27.077 0.223999 27.2796 0.384C27.4823 0.544 27.5836 0.848 27.5836 1.296V6.304ZM31.1196 3.232H33.5676V9.984C33.461 10.016 33.301 10.0427 33.0876 10.064C32.8743 10.096 32.6556 10.112 32.4316 10.112C31.9516 10.112 31.6103 10.0267 31.4076 9.856C31.2156 9.68533 31.1196 9.38667 31.1196 8.96V3.232ZM33.5676 6.304H31.1196V0.271999C31.237 0.250666 31.4023 0.224 31.6156 0.191999C31.829 0.159999 32.0423 0.143999 32.2556 0.143999C32.7143 0.143999 33.045 0.229333 33.2476 0.4C33.461 0.559999 33.5676 0.863999 33.5676 1.312V6.304ZM32.5116 6.096H26.2556V4.16H32.5116V6.096ZM39.9831 10.272C39.1085 10.272 38.3565 10.1173 37.7271 9.808C37.1085 9.488 36.6285 9.04533 36.2871 8.48C35.9565 7.91467 35.7911 7.25333 35.7911 6.496V5.44H38.2391V6.432C38.2391 7.01867 38.3991 7.47733 38.7191 7.808C39.0498 8.128 39.4711 8.288 39.9831 8.288C40.4951 8.288 40.9111 8.128 41.2311 7.808C41.5618 7.47733 41.7271 7.01867 41.7271 6.432V5.44H44.1751V6.496C44.1751 7.25333 44.0098 7.91467 43.6791 8.48C43.3485 9.04533 42.8685 9.488 42.2391 9.808C41.6098 10.1173 40.8578 10.272 39.9831 10.272ZM38.2391 5.92H35.7911V0.271999C35.9085 0.250666 36.0738 0.224 36.2871 0.191999C36.5005 0.159999 36.7138 0.143999 36.9271 0.143999C37.3858 0.143999 37.7165 0.223999 37.9191 0.384C38.1325 0.544 38.2391 0.848 38.2391 1.296V5.92ZM44.1751 5.952H41.7271V0.271999C41.8445 0.250666 42.0098 0.224 42.2231 0.191999C42.4471 0.159999 42.6605 0.143999 42.8631 0.143999C43.3218 0.143999 43.6525 0.223999 43.8551 0.384C44.0685 0.544 44.1751 0.848 44.1751 1.296V5.952ZM51.4896 4.176V5.904H47.9216V4.176H51.4896ZM50.2896 5.904L50.4816 4.576C51.367 4.576 52.103 4.68267 52.6896 4.896C53.2763 5.10933 53.7136 5.408 54.0016 5.792C54.3003 6.176 54.4496 6.64 54.4496 7.184C54.4496 8.21867 54.0656 8.98667 53.2976 9.488C52.5296 9.98933 51.4363 10.24 50.0176 10.24C49.7616 10.24 49.4683 10.2293 49.1376 10.208C48.8176 10.1867 48.487 10.1493 48.1456 10.096C47.815 10.0427 47.511 9.968 47.2336 9.872C46.679 9.66933 46.4016 9.312 46.4016 8.8V1.152C46.4016 0.949333 46.4603 0.789333 46.5776 0.672C46.695 0.554666 46.8496 0.463999 47.0416 0.4C47.4043 0.271999 47.8416 0.181333 48.3536 0.127999C48.8763 0.074666 49.4096 0.0479994 49.9536 0.0479994C51.2763 0.0479994 52.295 0.277333 53.0096 0.735999C53.735 1.19467 54.0976 1.888 54.0976 2.816C54.0976 3.328 53.9483 3.76533 53.6496 4.128C53.351 4.49067 52.9136 4.768 52.3376 4.96C51.7723 5.152 51.0843 5.248 50.2736 5.248L50.1616 4.176C50.6736 4.176 51.0523 4.07467 51.2976 3.872C51.543 3.66933 51.6656 3.38133 51.6656 3.008C51.6656 2.656 51.5216 2.384 51.2336 2.192C50.9563 2 50.535 1.904 49.9696 1.904C49.767 1.904 49.5536 1.91467 49.3296 1.936C49.1056 1.94667 48.919 1.968 48.7696 2V8.224C48.951 8.26667 49.1696 8.29867 49.4256 8.32C49.6923 8.34133 49.943 8.352 50.1776 8.352C50.711 8.352 51.1376 8.25067 51.4576 8.048C51.7883 7.83467 51.9536 7.51467 51.9536 7.088C51.9536 6.68267 51.815 6.384 51.5376 6.192C51.2603 6 50.8443 5.904 50.2896 5.904Z" fill="#01ACEC" fill-opacity="0.941176"/>
</svg>
