<svg width="57" height="11" viewBox="0 0 57 11" fill="none" xmlns="http://www.w3.org/2000/svg">
<path d="M9.648 5.216V8.544C9.648 8.84267 9.58933 9.072 9.472 9.232C9.36533 9.38133 9.184 9.52533 8.928 9.664C8.64 9.824 8.224 9.96267 7.68 10.08C7.136 10.208 6.592 10.272 6.048 10.272C5.024 10.272 4.10133 10.096 3.28 9.744C2.46933 9.38133 1.824 8.82667 1.344 8.08C0.874667 7.32267 0.64 6.352 0.64 5.168C0.64 4.03733 0.88 3.09333 1.36 2.336C1.84 1.568 2.48533 0.992 3.296 0.608C4.11733 0.213333 5.024 0.0159998 6.016 0.0159998C6.67733 0.0159998 7.248 0.0853332 7.728 0.224C8.21867 0.362666 8.592 0.554666 8.848 0.799999C9.11467 1.04533 9.248 1.328 9.248 1.648C9.248 1.88267 9.184 2.096 9.056 2.288C8.93867 2.46933 8.79467 2.608 8.624 2.704C8.35733 2.53333 8.02133 2.37333 7.616 2.224C7.21067 2.07467 6.736 2 6.192 2C5.60533 2 5.07733 2.128 4.608 2.384C4.14933 2.62933 3.792 2.992 3.536 3.472C3.28 3.94133 3.152 4.50133 3.152 5.152C3.152 5.856 3.27467 6.44267 3.52 6.912C3.776 7.38133 4.12267 7.73333 4.56 7.968C5.008 8.192 5.51467 8.304 6.08 8.304C6.34667 8.304 6.58667 8.27733 6.8 8.224C7.024 8.17067 7.19467 8.11733 7.312 8.064V6.192H5.44C5.376 6.08533 5.31733 5.952 5.264 5.792C5.21067 5.62133 5.184 5.44 5.184 5.248C5.184 4.91733 5.25867 4.67733 5.408 4.528C5.568 4.368 5.776 4.288 6.032 4.288H8.72C9.008 4.288 9.232 4.368 9.392 4.528C9.56267 4.688 9.648 4.91733 9.648 5.216ZM15.8113 10.272C14.9366 10.272 14.1846 10.1173 13.5553 9.808C12.9366 9.488 12.4566 9.04533 12.1153 8.48C11.7846 7.91467 11.6193 7.25333 11.6193 6.496V5.44H14.0673V6.432C14.0673 7.01867 14.2273 7.47733 14.5473 7.808C14.8779 8.128 15.2993 8.288 15.8113 8.288C16.3233 8.288 16.7393 8.128 17.0593 7.808C17.3899 7.47733 17.5553 7.01867 17.5553 6.432V5.44H20.0033V6.496C20.0033 7.25333 19.8379 7.91467 19.5073 8.48C19.1766 9.04533 18.6966 9.488 18.0673 9.808C17.4379 10.1173 16.6859 10.272 15.8113 10.272ZM14.0673 5.92H11.6193V0.271999C11.7366 0.250666 11.9019 0.224 12.1153 0.191999C12.3286 0.159999 12.5419 0.143999 12.7553 0.143999C13.2139 0.143999 13.5446 0.223999 13.7473 0.384C13.9606 0.544 14.0673 0.848 14.0673 1.296V5.92ZM20.0033 5.952H17.5553V0.271999C17.6726 0.250666 17.8379 0.224 18.0513 0.191999C18.2753 0.159999 18.4886 0.143999 18.6913 0.143999C19.1499 0.143999 19.4806 0.223999 19.6833 0.384C19.8966 0.544 20.0033 0.848 20.0033 1.296V5.952ZM22.2298 3.264H24.6618V9.904L23.5258 10.032C23.1311 10.032 22.8164 9.91467 22.5818 9.68C22.3471 9.44533 22.2298 9.13067 22.2298 8.736V3.264ZM23.5258 10.032V8.048H28.5498C28.6244 8.15467 28.6884 8.29333 28.7418 8.464C28.7951 8.624 28.8218 8.80533 28.8218 9.008C28.8218 9.34933 28.7471 9.60533 28.5978 9.776C28.4484 9.94667 28.2404 10.032 27.9738 10.032H23.5258ZM24.6618 6.304H22.2298V0.271999C22.3364 0.250666 22.4964 0.224 22.7098 0.191999C22.9338 0.159999 23.1471 0.143999 23.3498 0.143999C23.8191 0.143999 24.1551 0.223999 24.3578 0.384C24.5604 0.544 24.6618 0.848 24.6618 1.296V6.304ZM30.386 3.264H32.818V9.904L31.682 10.032C31.2873 10.032 30.9727 9.91467 30.738 9.68C30.5033 9.44533 30.386 9.13067 30.386 8.736V3.264ZM31.682 10.032V8.048H36.706C36.7807 8.15467 36.8447 8.29333 36.898 8.464C36.9513 8.624 36.978 8.80533 36.978 9.008C36.978 9.34933 36.9033 9.60533 36.754 9.776C36.6047 9.94667 36.3967 10.032 36.13 10.032H31.682ZM32.818 6.304H30.386V0.271999C30.4927 0.250666 30.6527 0.224 30.866 0.191999C31.09 0.159999 31.3033 0.143999 31.506 0.143999C31.9753 0.143999 32.3113 0.223999 32.514 0.384C32.7167 0.544 32.818 0.848 32.818 1.296V6.304ZM42.6025 2.32H42.5065C42.3998 2.66133 42.2718 3.04 42.1225 3.456C41.9838 3.872 41.8398 4.30933 41.6905 4.768C41.5412 5.216 41.3972 5.664 41.2585 6.112L40.9705 7.552C40.9065 7.75467 40.8425 7.968 40.7785 8.192C40.7252 8.416 40.6665 8.63467 40.6025 8.848C40.5385 9.06133 40.4798 9.264 40.4265 9.456C40.3732 9.648 40.3198 9.82933 40.2665 10C40.1492 10.032 40.0158 10.064 39.8665 10.096C39.7172 10.1387 39.5412 10.16 39.3385 10.16C38.8905 10.16 38.5492 10.08 38.3145 9.92C38.0798 9.76 37.9625 9.52533 37.9625 9.216C37.9625 9.088 37.9785 8.95467 38.0105 8.816C38.0532 8.67733 38.1012 8.51733 38.1545 8.336C38.2505 7.984 38.3838 7.54133 38.5545 7.008C38.7358 6.47467 38.9278 5.89867 39.1305 5.28C39.3438 4.65067 39.5572 4.032 39.7705 3.424C39.9945 2.816 40.1972 2.256 40.3785 1.744C40.5705 1.232 40.7252 0.832 40.8425 0.544C40.9918 0.448 41.2265 0.362666 41.5465 0.287999C41.8772 0.202666 42.2025 0.16 42.5225 0.16C42.9812 0.16 43.3918 0.229333 43.7545 0.367999C44.1172 0.495999 44.3465 0.704 44.4425 0.992C44.6452 1.55733 44.8638 2.21333 45.0985 2.96C45.3438 3.696 45.5892 4.46933 45.8345 5.28C46.0798 6.09067 46.3145 6.88 46.5385 7.648C46.7732 8.40533 46.9758 9.088 47.1465 9.696C47.0292 9.824 46.8585 9.93067 46.6345 10.016C46.4105 10.112 46.1438 10.16 45.8345 10.16C45.3972 10.16 45.0878 10.08 44.9065 9.92C44.7252 9.76 44.5865 9.52 44.4905 9.2L43.9785 7.408L43.7065 6.048C43.5785 5.568 43.4452 5.104 43.3065 4.656C43.1678 4.208 43.0398 3.78667 42.9225 3.392C42.8052 2.98667 42.6985 2.62933 42.6025 2.32ZM39.8985 7.84L40.8425 5.952H44.5865L44.9065 7.84H39.8985ZM49.9328 4.848L52.6528 4.528C53.5488 5.47733 54.3488 6.32533 55.0528 7.072C55.7568 7.81867 56.3274 8.416 56.7648 8.864C56.7648 9.26933 56.6314 9.58933 56.3648 9.824C56.0981 10.048 55.7888 10.16 55.4368 10.16C55.0528 10.16 54.7381 10.064 54.4928 9.872C54.2474 9.68 54.0128 9.456 53.7888 9.2L49.9328 4.848ZM52.7168 5.696L49.6128 5.84L54.6368 0.207999C55.2448 0.207999 55.6874 0.330666 55.9648 0.575999C56.2421 0.810666 56.3808 1.088 56.3808 1.408C56.3808 1.65333 56.3168 1.888 56.1888 2.112C56.0714 2.32533 55.8741 2.56 55.5968 2.816L52.7168 5.696ZM48.6048 3.216H51.0368V9.984C50.9408 10.016 50.7861 10.048 50.5728 10.08C50.3594 10.112 50.1408 10.128 49.9168 10.128C49.4368 10.128 49.0954 10.0427 48.8928 9.872C48.7008 9.69067 48.6048 9.392 48.6048 8.976V3.216ZM51.0368 6.288H48.6048V0.271999C48.7114 0.250666 48.8714 0.224 49.0848 0.191999C49.3088 0.159999 49.5221 0.143999 49.7248 0.143999C50.1941 0.143999 50.5301 0.223999 50.7328 0.384C50.9354 0.544 51.0368 0.848 51.0368 1.296V6.288Z" fill="white" fill-opacity="0.941176"/>
</svg>
