<svg width="55" height="73" viewBox="0 0 55 73" fill="none" xmlns="http://www.w3.org/2000/svg">
<path d="M41.1618 12.8641H26.6914V0H54.026C54.026 3.41178 52.6706 6.68383 50.2582 9.09632C47.8457 11.5088 44.5736 12.8641 41.1618 12.8641Z" fill="url(#paint0_linear_799_374)"/>
<path d="M26.692 0C31.9712 0 37.1319 1.56546 41.5213 4.49842C45.9108 7.43138 49.332 11.6001 51.3523 16.4774C53.3725 21.3548 53.9011 26.7217 52.8712 31.8994C51.8413 37.0772 49.2991 41.8332 45.5662 45.5662C41.8332 49.2991 37.0771 51.8413 31.8994 52.8712C26.7216 53.9011 21.3548 53.3725 16.4774 51.3523C11.6001 49.332 7.43138 45.9108 4.49842 41.5214C1.56546 37.1319 0 31.9712 0 26.692C0.00799424 19.6153 2.82275 12.8308 7.82675 7.82675C12.8307 2.82276 19.6153 0.00799424 26.692 0ZM26.692 40.52C29.4269 40.52 32.1004 39.709 34.3744 38.1895C36.6484 36.6701 38.4208 34.5105 39.4674 31.9838C40.514 29.457 40.7878 26.6767 40.2542 23.9944C39.7207 21.312 38.4037 18.8481 36.4699 16.9142C34.536 14.9804 32.0721 13.6634 29.3897 13.1298C26.7074 12.5963 23.927 12.8701 21.4003 13.9167C18.8736 14.9633 16.714 16.7357 15.1946 19.0097C13.6751 21.2837 12.8641 23.9571 12.8641 26.692C12.8685 30.3581 14.3268 33.8727 16.9191 36.465C19.5113 39.0573 23.026 40.5156 26.692 40.52Z" fill="url(#paint1_linear_799_374)"/>
<path d="M40.5173 73.0008H1.28516C1.28516 69.5895 2.6401 66.3179 5.052 63.9055C7.4639 61.4931 10.7352 60.1374 14.1465 60.1367H53.3924C53.3921 61.8269 53.0587 63.5004 52.4114 65.0617C51.7641 66.623 50.8156 68.0415 49.6199 69.2361C48.4243 70.4307 47.005 71.3781 45.4432 72.024C43.8813 72.67 42.2075 73.0019 40.5173 73.0008Z" fill="url(#paint2_linear_799_374)"/>
<defs>
<linearGradient id="paint0_linear_799_374" x1="20.862" y1="6.43344" x2="48.1966" y2="6.43344" gradientUnits="userSpaceOnUse">
<stop stop-color="#FF5C8E"/>
<stop offset="0.39" stop-color="#FF7E79"/>
<stop offset="1" stop-color="#FFB05A"/>
</linearGradient>
<linearGradient id="paint1_linear_799_374" x1="53.3841" y1="26.692" x2="0" y2="26.692" gradientUnits="userSpaceOnUse">
<stop stop-color="#FFB05A"/>
<stop offset="1" stop-color="#FFE05C"/>
</linearGradient>
<linearGradient id="paint2_linear_799_374" x1="-13.9486" y1="66.5702" x2="38.1477" y2="66.5702" gradientUnits="userSpaceOnUse">
<stop stop-color="#FF5C8E"/>
<stop offset="1" stop-color="#FFB05A"/>
</linearGradient>
</defs>
</svg>
