<svg width="23" height="11" viewBox="0 0 23 11" fill="none" xmlns="http://www.w3.org/2000/svg">
<path d="M4.032 8.288C4.608 8.288 5.01867 8.18667 5.264 7.984C5.52 7.77067 5.648 7.52 5.648 7.232C5.648 6.96533 5.54667 6.752 5.344 6.592C5.152 6.42133 4.864 6.27733 4.48 6.16L3.632 5.888C3.056 5.696 2.544 5.48267 2.096 5.248C1.65867 5.01333 1.31733 4.70933 1.072 4.336C0.837333 3.96267 0.72 3.488 0.72 2.912C0.72 2.02667 1.056 1.32267 1.728 0.799999C2.4 0.277333 3.33333 0.0159998 4.528 0.0159998C5.136 0.0159998 5.67467 0.0746663 6.144 0.191999C6.624 0.309333 6.99733 0.485332 7.264 0.719999C7.54133 0.944 7.68 1.22133 7.68 1.552C7.68 1.79733 7.62133 2.01067 7.504 2.192C7.39733 2.36267 7.25867 2.512 7.088 2.64C6.84267 2.46933 6.51733 2.32533 6.112 2.208C5.70667 2.08 5.25867 2.016 4.768 2.016C4.256 2.016 3.872 2.10133 3.616 2.272C3.36 2.432 3.232 2.64533 3.232 2.912C3.232 3.12533 3.31733 3.30133 3.488 3.44C3.65867 3.568 3.91467 3.68533 4.256 3.792L5.136 4.064C6.10667 4.36267 6.85333 4.76267 7.376 5.264C7.89867 5.75467 8.16 6.416 8.16 7.248C8.16 8.144 7.81333 8.87467 7.12 9.44C6.42667 9.99467 5.424 10.272 4.112 10.272C3.46133 10.272 2.88 10.2027 2.368 10.064C1.856 9.92533 1.44533 9.72267 1.136 9.456C0.837333 9.18933 0.688 8.88 0.688 8.528C0.688 8.25067 0.768 8.016 0.928 7.824C1.09867 7.62133 1.28533 7.472 1.488 7.376C1.776 7.61067 2.13333 7.824 2.56 8.016C2.99733 8.19733 3.488 8.288 4.032 8.288ZM9.83913 3.232H12.2711V9.984C12.1751 10.016 12.0205 10.0427 11.8071 10.064C11.5938 10.096 11.3751 10.112 11.1511 10.112C10.6711 10.112 10.3298 10.0267 10.1271 9.856C9.93513 9.68533 9.83913 9.38667 9.83913 8.96V3.232ZM12.2711 6.304H9.83913V0.271999C9.94579 0.250666 10.1058 0.224 10.3191 0.191999C10.5431 0.159999 10.7618 0.143999 10.9751 0.143999C11.4338 0.143999 11.7645 0.223999 11.9671 0.384C12.1698 0.544 12.2711 0.848 12.2711 1.296V6.304ZM14.5579 3.232H16.9899V9.984C16.8939 10.016 16.7392 10.0427 16.5259 10.064C16.3125 10.096 16.0939 10.112 15.8699 10.112C15.3899 10.112 15.0485 10.0267 14.8459 9.856C14.6539 9.68533 14.5579 9.38667 14.5579 8.96V3.232ZM16.9899 6.304H14.5579V0.271999C14.6645 0.250666 14.8245 0.224 15.0379 0.191999C15.2619 0.159999 15.4752 0.143999 15.6779 0.143999C16.1472 0.143999 16.4832 0.223999 16.6859 0.384C16.8885 0.544 16.9899 0.848 16.9899 1.296V6.304ZM20.5259 3.232H22.9739V9.984C22.8672 10.016 22.7072 10.0427 22.4939 10.064C22.2805 10.096 22.0619 10.112 21.8379 10.112C21.3579 10.112 21.0165 10.0267 20.8139 9.856C20.6219 9.68533 20.5259 9.38667 20.5259 8.96V3.232ZM22.9739 6.304H20.5259V0.271999C20.6432 0.250666 20.8085 0.224 21.0219 0.191999C21.2352 0.159999 21.4485 0.143999 21.6619 0.143999C22.1205 0.143999 22.4512 0.229333 22.6539 0.4C22.8672 0.559999 22.9739 0.863999 22.9739 1.312V6.304ZM21.9179 6.096H15.6619V4.16H21.9179V6.096Z" fill="white" fill-opacity="0.941176"/>
</svg>
