<svg width="95" height="11" viewBox="0 0 95 11" fill="none" xmlns="http://www.w3.org/2000/svg">
<path d="M3.248 2.256L3.232 0.304H8.176C8.24 0.4 8.29867 0.533333 8.352 0.704C8.40533 0.874667 8.432 1.056 8.432 1.248C8.432 1.58933 8.352 1.84533 8.192 2.016C8.04267 2.176 7.83467 2.256 7.568 2.256H3.248ZM5.504 0.304L5.52 2.256H0.576C0.501333 2.16 0.437333 2.02667 0.384 1.856C0.341333 1.68533 0.32 1.504 0.32 1.312C0.32 0.959999 0.394667 0.704 0.544 0.544C0.704 0.384 0.912 0.304 1.168 0.304H5.504ZM3.12 1.824H5.568V9.984C5.46133 10.016 5.30133 10.0427 5.088 10.064C4.87467 10.096 4.656 10.112 4.432 10.112C3.952 10.112 3.61067 10.0267 3.408 9.856C3.216 9.68533 3.12 9.38667 3.12 8.96V1.824ZM12.3176 4.848H13.3576C13.891 4.848 14.3176 4.73067 14.6376 4.496C14.9683 4.25067 15.1336 3.89333 15.1336 3.424C15.1336 2.96533 14.979 2.61867 14.6696 2.384C14.3603 2.13867 13.8856 2.016 13.2456 2.016C13.0643 2.016 12.899 2.02133 12.7496 2.032C12.6003 2.04267 12.4563 2.064 12.3176 2.096V4.848ZM13.5816 6.736H9.90163V1.152C9.90163 0.949333 9.96029 0.789333 10.0776 0.672C10.195 0.554666 10.3496 0.463999 10.5416 0.4C10.8936 0.271999 11.3043 0.181333 11.7736 0.127999C12.2536 0.074666 12.7496 0.0479994 13.2616 0.0479994C14.7016 0.0479994 15.7843 0.352 16.5096 0.96C17.235 1.55733 17.5976 2.37333 17.5976 3.408C17.5976 4.048 17.4216 4.624 17.0696 5.136C16.7283 5.63733 16.2536 6.032 15.6456 6.32C15.0483 6.59733 14.3603 6.736 13.5816 6.736ZM13.1336 6.16L15.3096 5.648C15.555 5.98933 15.8056 6.32533 16.0616 6.656C16.3283 6.98667 16.579 7.30667 16.8136 7.616C17.059 7.92533 17.2776 8.21333 17.4696 8.48C17.6616 8.736 17.8163 8.95467 17.9336 9.136C17.8376 9.456 17.667 9.70667 17.4216 9.888C17.1763 10.0587 16.899 10.144 16.5896 10.144C16.195 10.144 15.891 10.0587 15.6776 9.888C15.475 9.70667 15.283 9.472 15.1016 9.184L13.1336 6.16ZM9.90163 5.824H12.3336V9.984C12.2376 10.016 12.083 10.0427 11.8696 10.064C11.6563 10.096 11.4376 10.112 11.2136 10.112C10.7336 10.112 10.3923 10.0267 10.1896 9.856C9.99763 9.68533 9.90163 9.38667 9.90163 8.96V5.824ZM23.5869 2.32H23.4909C23.3842 2.66133 23.2562 3.04 23.1069 3.456C22.9682 3.872 22.8242 4.30933 22.6749 4.768C22.5255 5.216 22.3815 5.664 22.2429 6.112L21.9549 7.552C21.8909 7.75467 21.8269 7.968 21.7629 8.192C21.7095 8.416 21.6509 8.63467 21.5869 8.848C21.5229 9.06133 21.4642 9.264 21.4109 9.456C21.3575 9.648 21.3042 9.82933 21.2509 10C21.1335 10.032 21.0002 10.064 20.8509 10.096C20.7015 10.1387 20.5255 10.16 20.3229 10.16C19.8749 10.16 19.5335 10.08 19.2989 9.92C19.0642 9.76 18.9469 9.52533 18.9469 9.216C18.9469 9.088 18.9629 8.95467 18.9949 8.816C19.0375 8.67733 19.0855 8.51733 19.1389 8.336C19.2349 7.984 19.3682 7.54133 19.5389 7.008C19.7202 6.47467 19.9122 5.89867 20.1149 5.28C20.3282 4.65067 20.5415 4.032 20.7549 3.424C20.9789 2.816 21.1815 2.256 21.3629 1.744C21.5549 1.232 21.7095 0.832 21.8269 0.544C21.9762 0.448 22.2109 0.362666 22.5309 0.287999C22.8615 0.202666 23.1869 0.16 23.5069 0.16C23.9655 0.16 24.3762 0.229333 24.7389 0.367999C25.1015 0.495999 25.3309 0.704 25.4269 0.992C25.6295 1.55733 25.8482 2.21333 26.0829 2.96C26.3282 3.696 26.5735 4.46933 26.8189 5.28C27.0642 6.09067 27.2989 6.88 27.5229 7.648C27.7575 8.40533 27.9602 9.088 28.1309 9.696C28.0135 9.824 27.8429 9.93067 27.6189 10.016C27.3949 10.112 27.1282 10.16 26.8189 10.16C26.3815 10.16 26.0722 10.08 25.8909 9.92C25.7095 9.76 25.5709 9.52 25.4749 9.2L24.9629 7.408L24.6909 6.048C24.5629 5.568 24.4295 5.104 24.2909 4.656C24.1522 4.208 24.0242 3.78667 23.9069 3.392C23.7895 2.98667 23.6829 2.62933 23.5869 2.32ZM20.8829 7.84L21.8269 5.952H25.5709L25.8909 7.84H20.8829ZM29.5891 3.072L31.7971 3.04C31.8398 3.49867 31.8718 3.952 31.8931 4.4C31.9145 4.848 31.9251 5.28 31.9251 5.696C31.9358 6.112 31.9411 6.51733 31.9411 6.912V10C31.8451 10.0213 31.6905 10.0427 31.4771 10.064C31.2745 10.096 31.0665 10.112 30.8531 10.112C30.3838 10.112 30.0531 10.032 29.8611 9.872C29.6798 9.712 29.5891 9.424 29.5891 9.008V3.072ZM38.1171 7.184L35.8931 7.2C35.8185 6.42133 35.7758 5.68 35.7651 4.976C35.7545 4.272 35.7491 3.6 35.7491 2.96V0.271999C35.8558 0.250666 36.0105 0.224 36.2131 0.191999C36.4158 0.159999 36.6291 0.143999 36.8531 0.143999C37.3118 0.143999 37.6371 0.229333 37.8291 0.4C38.0211 0.559999 38.1171 0.842666 38.1171 1.248V7.184ZM38.1171 6.416V9.696C37.9785 9.824 37.7811 9.92533 37.5251 10C37.2798 10.0853 36.9865 10.128 36.6451 10.128C36.2825 10.128 35.9411 10.0693 35.6211 9.952C35.3118 9.83467 35.0558 9.57333 34.8531 9.168L32.9171 5.488C32.7998 5.25333 32.6825 5.01867 32.5651 4.784C32.4585 4.54933 32.3518 4.31467 32.2451 4.08C32.1385 3.83467 32.0318 3.58933 31.9251 3.344L29.5891 3.872V0.719999C29.7171 0.538666 29.9145 0.4 30.1811 0.304C30.4585 0.208 30.7571 0.16 31.0771 0.16C31.4291 0.16 31.7598 0.218666 32.0691 0.335999C32.3891 0.453333 32.6505 0.709332 32.8531 1.104L34.8051 4.8C34.9225 5.024 35.0398 5.25867 35.1571 5.504C35.2745 5.73867 35.3865 5.97333 35.4931 6.208C35.5998 6.44267 35.7011 6.68267 35.7971 6.928L38.1171 6.416ZM43.2664 8.288C43.8424 8.288 44.253 8.18667 44.4984 7.984C44.7544 7.77067 44.8824 7.52 44.8824 7.232C44.8824 6.96533 44.781 6.752 44.5784 6.592C44.3864 6.42133 44.0984 6.27733 43.7144 6.16L42.8664 5.888C42.2904 5.696 41.7784 5.48267 41.3304 5.248C40.893 5.01333 40.5517 4.70933 40.3064 4.336C40.0717 3.96267 39.9544 3.488 39.9544 2.912C39.9544 2.02667 40.2904 1.32267 40.9624 0.799999C41.6344 0.277333 42.5677 0.0159998 43.7624 0.0159998C44.3704 0.0159998 44.909 0.0746663 45.3784 0.191999C45.8584 0.309333 46.2317 0.485332 46.4984 0.719999C46.7757 0.944 46.9144 1.22133 46.9144 1.552C46.9144 1.79733 46.8557 2.01067 46.7384 2.192C46.6317 2.36267 46.493 2.512 46.3224 2.64C46.077 2.46933 45.7517 2.32533 45.3464 2.208C44.941 2.08 44.493 2.016 44.0024 2.016C43.4904 2.016 43.1064 2.10133 42.8504 2.272C42.5944 2.432 42.4664 2.64533 42.4664 2.912C42.4664 3.12533 42.5517 3.30133 42.7224 3.44C42.893 3.568 43.149 3.68533 43.4904 3.792L44.3704 4.064C45.341 4.36267 46.0877 4.76267 46.6104 5.264C47.133 5.75467 47.3944 6.416 47.3944 7.248C47.3944 8.144 47.0477 8.87467 46.3544 9.44C45.661 9.99467 44.6584 10.272 43.3464 10.272C42.6957 10.272 42.1144 10.2027 41.6024 10.064C41.0904 9.92533 40.6797 9.72267 40.3704 9.456C40.0717 9.18933 39.9224 8.88 39.9224 8.528C39.9224 8.25067 40.0024 8.016 40.1624 7.824C40.333 7.62133 40.5197 7.472 40.7224 7.376C41.0104 7.61067 41.3677 7.824 41.7944 8.016C42.2317 8.19733 42.7224 8.288 43.2664 8.288ZM49.0735 3.264H51.5055V9.904L50.3695 10.032C49.9748 10.032 49.6602 9.91467 49.4255 9.68C49.1908 9.44533 49.0735 9.13067 49.0735 8.736V3.264ZM50.3695 10.032V8.048H55.3935C55.4682 8.15467 55.5322 8.29333 55.5855 8.464C55.6388 8.624 55.6655 8.80533 55.6655 9.008C55.6655 9.34933 55.5908 9.60533 55.4415 9.776C55.2922 9.94667 55.0842 10.032 54.8175 10.032H50.3695ZM51.5055 6.304H49.0735V0.271999C49.1802 0.250666 49.3402 0.224 49.5535 0.191999C49.7775 0.159999 49.9908 0.143999 50.1935 0.143999C50.6628 0.143999 50.9988 0.223999 51.2015 0.384C51.4042 0.544 51.5055 0.848 51.5055 1.296V6.304ZM57.2298 3.216H59.5978V9.904C59.5018 9.92533 59.3524 9.952 59.1498 9.984C58.9578 10.016 58.7498 10.032 58.5258 10.032C58.1311 10.032 57.8164 9.91467 57.5818 9.68C57.3471 9.44533 57.2298 9.13067 57.2298 8.736V3.216ZM59.5978 7.088H57.2298V1.6C57.2298 1.19467 57.3471 0.879999 57.5818 0.655999C57.8164 0.421333 58.1311 0.304 58.5258 0.304C58.7498 0.304 58.9578 0.32 59.1498 0.351999C59.3524 0.384 59.5018 0.410666 59.5978 0.431999V7.088ZM58.5258 6.016V4.096H63.3578C63.4218 4.20267 63.4804 4.336 63.5338 4.496C63.5871 4.656 63.6138 4.832 63.6138 5.024C63.6138 5.36533 63.5338 5.616 63.3738 5.776C63.2244 5.936 63.0218 6.016 62.7658 6.016H58.5258ZM58.5258 10.032V8.096H63.8858C63.9498 8.192 64.0084 8.32533 64.0618 8.496C64.1151 8.66667 64.1418 8.848 64.1418 9.04C64.1418 9.38133 64.0618 9.632 63.9018 9.792C63.7524 9.952 63.5498 10.032 63.2938 10.032H58.5258ZM58.5258 2.224V0.304H63.8058C63.8804 0.4 63.9391 0.528 63.9818 0.688C64.0351 0.848 64.0618 1.024 64.0618 1.216C64.0618 1.55733 63.9871 1.81333 63.8378 1.984C63.6884 2.144 63.4804 2.224 63.2138 2.224H58.5258ZM70.04 2.32H69.944C69.8373 2.66133 69.7093 3.04 69.56 3.456C69.4213 3.872 69.2773 4.30933 69.128 4.768C68.9787 5.216 68.8347 5.664 68.696 6.112L68.408 7.552C68.344 7.75467 68.28 7.968 68.216 8.192C68.1627 8.416 68.104 8.63467 68.04 8.848C67.976 9.06133 67.9173 9.264 67.864 9.456C67.8107 9.648 67.7573 9.82933 67.704 10C67.5867 10.032 67.4533 10.064 67.304 10.096C67.1547 10.1387 66.9787 10.16 66.776 10.16C66.328 10.16 65.9867 10.08 65.752 9.92C65.5173 9.76 65.4 9.52533 65.4 9.216C65.4 9.088 65.416 8.95467 65.448 8.816C65.4907 8.67733 65.5387 8.51733 65.592 8.336C65.688 7.984 65.8213 7.54133 65.992 7.008C66.1733 6.47467 66.3653 5.89867 66.568 5.28C66.7813 4.65067 66.9947 4.032 67.208 3.424C67.432 2.816 67.6347 2.256 67.816 1.744C68.008 1.232 68.1627 0.832 68.28 0.544C68.4293 0.448 68.664 0.362666 68.984 0.287999C69.3147 0.202666 69.64 0.16 69.96 0.16C70.4187 0.16 70.8293 0.229333 71.192 0.367999C71.5547 0.495999 71.784 0.704 71.88 0.992C72.0827 1.55733 72.3013 2.21333 72.536 2.96C72.7813 3.696 73.0267 4.46933 73.272 5.28C73.5173 6.09067 73.752 6.88 73.976 7.648C74.2107 8.40533 74.4133 9.088 74.584 9.696C74.4667 9.824 74.296 9.93067 74.072 10.016C73.848 10.112 73.5813 10.16 73.272 10.16C72.8347 10.16 72.5253 10.08 72.344 9.92C72.1627 9.76 72.024 9.52 71.928 9.2L71.416 7.408L71.144 6.048C71.016 5.568 70.8827 5.104 70.744 4.656C70.6053 4.208 70.4773 3.78667 70.36 3.392C70.2427 2.98667 70.136 2.62933 70.04 2.32ZM67.336 7.84L68.28 5.952H72.024L72.344 7.84H67.336ZM78.4583 4.848H79.4983C80.0316 4.848 80.4583 4.73067 80.7783 4.496C81.1089 4.25067 81.2743 3.89333 81.2743 3.424C81.2743 2.96533 81.1196 2.61867 80.8103 2.384C80.5009 2.13867 80.0263 2.016 79.3863 2.016C79.2049 2.016 79.0396 2.02133 78.8903 2.032C78.7409 2.04267 78.5969 2.064 78.4583 2.096V4.848ZM79.7223 6.736H76.0423V1.152C76.0423 0.949333 76.1009 0.789333 76.2183 0.672C76.3356 0.554666 76.4903 0.463999 76.6823 0.4C77.0343 0.271999 77.4449 0.181333 77.9143 0.127999C78.3943 0.074666 78.8903 0.0479994 79.4023 0.0479994C80.8423 0.0479994 81.9249 0.352 82.6503 0.96C83.3756 1.55733 83.7383 2.37333 83.7383 3.408C83.7383 4.048 83.5623 4.624 83.2103 5.136C82.8689 5.63733 82.3943 6.032 81.7863 6.32C81.1889 6.59733 80.5009 6.736 79.7223 6.736ZM79.2743 6.16L81.4503 5.648C81.6956 5.98933 81.9463 6.32533 82.2023 6.656C82.4689 6.98667 82.7196 7.30667 82.9543 7.616C83.1996 7.92533 83.4183 8.21333 83.6103 8.48C83.8023 8.736 83.9569 8.95467 84.0743 9.136C83.9783 9.456 83.8076 9.70667 83.5623 9.888C83.3169 10.0587 83.0396 10.144 82.7303 10.144C82.3356 10.144 82.0316 10.0587 81.8183 9.888C81.6156 9.70667 81.4236 9.472 81.2423 9.184L79.2743 6.16ZM76.0423 5.824H78.4743V9.984C78.3783 10.016 78.2236 10.0427 78.0103 10.064C77.7969 10.096 77.5783 10.112 77.3543 10.112C76.8743 10.112 76.5329 10.0267 76.3303 9.856C76.1383 9.68533 76.0423 9.38667 76.0423 8.96V5.824ZM85.6985 3.072L87.9065 3.04C87.9492 3.49867 87.9812 3.952 88.0025 4.4C88.0238 4.848 88.0345 5.28 88.0345 5.696C88.0452 6.112 88.0505 6.51733 88.0505 6.912V10C87.9545 10.0213 87.7998 10.0427 87.5865 10.064C87.3838 10.096 87.1758 10.112 86.9625 10.112C86.4932 10.112 86.1625 10.032 85.9705 9.872C85.7892 9.712 85.6985 9.424 85.6985 9.008V3.072ZM94.2265 7.184L92.0025 7.2C91.9278 6.42133 91.8852 5.68 91.8745 4.976C91.8638 4.272 91.8585 3.6 91.8585 2.96V0.271999C91.9652 0.250666 92.1198 0.224 92.3225 0.191999C92.5252 0.159999 92.7385 0.143999 92.9625 0.143999C93.4212 0.143999 93.7465 0.229333 93.9385 0.4C94.1305 0.559999 94.2265 0.842666 94.2265 1.248V7.184ZM94.2265 6.416V9.696C94.0878 9.824 93.8905 9.92533 93.6345 10C93.3892 10.0853 93.0958 10.128 92.7545 10.128C92.3918 10.128 92.0505 10.0693 91.7305 9.952C91.4212 9.83467 91.1652 9.57333 90.9625 9.168L89.0265 5.488C88.9092 5.25333 88.7918 5.01867 88.6745 4.784C88.5678 4.54933 88.4612 4.31467 88.3545 4.08C88.2478 3.83467 88.1412 3.58933 88.0345 3.344L85.6985 3.872V0.719999C85.8265 0.538666 86.0238 0.4 86.2905 0.304C86.5678 0.208 86.8665 0.16 87.1865 0.16C87.5385 0.16 87.8692 0.218666 88.1785 0.335999C88.4985 0.453333 88.7598 0.709332 88.9625 1.104L90.9145 4.8C91.0318 5.024 91.1492 5.25867 91.2665 5.504C91.3838 5.73867 91.4958 5.97333 91.6025 6.208C91.7092 6.44267 91.8105 6.68267 91.9065 6.928L94.2265 6.416Z" fill="white" fill-opacity="0.941176"/>
</svg>
